<svg width="85" height="22" viewBox="0 0 85 22" fill="none" xmlns="http://www.w3.org/2000/svg">
<g clip-path="url(#clip0_226_644)">
<path d="M62.536 3.71039C61.9948 4.55157 61.2968 5.2427 60.443 5.78567C59.5883 6.32864 58.8912 6.52369 58.35 6.37178C57.8088 6.21986 57.5377 5.77911 57.5377 5.04952C57.5377 4.31994 57.8088 3.53972 58.35 2.70698C58.8912 1.87425 59.5892 1.18687 60.443 0.643899C61.2968 0.100932 61.9948 -0.0978743 62.536 0.0465417C63.0772 0.190958 63.3483 0.627957 63.3483 1.3566C63.3483 2.08525 63.0772 2.87109 62.536 3.71039Z" fill="url(#paint0_linear_226_644)"/>
<path d="M16.7835 7.51359C16.9827 7.66645 17.1136 7.89526 17.2085 8.12971C17.4437 8.71206 17.57 9.30566 18.0909 9.71078C18.374 9.93115 18.74 10.0409 19.1872 10.0409C19.9303 10.0409 21.0368 9.52698 20.8929 8.61265C20.774 7.854 19.9036 7.27821 19.3043 6.92749C18.4099 6.40422 17.2537 6.14258 15.8375 6.14258C14.4213 6.14258 13.2199 6.47267 12.3255 7.13192C11.4312 7.79211 10.9831 8.64454 10.9831 9.69109C10.9831 10.4957 11.1804 11.1474 11.5759 11.6482C11.9706 12.149 12.4482 12.5091 13.0078 12.7285C13.5675 12.9489 14.1225 13.1458 14.6739 13.3202C15.2253 13.4947 15.6992 13.7451 16.0947 14.0714C16.4894 14.3977 16.6876 14.8263 16.6876 15.3571C16.6876 16.0548 16.3962 16.4036 15.8145 16.4036C15.5544 16.4036 15.1792 16.2967 14.9708 16.1373C14.7717 15.9844 14.6407 15.7556 14.5458 15.5212C14.3106 14.9388 14.1843 14.3452 13.6634 13.9401C13.3803 13.7197 13.0143 13.61 12.5671 13.61C11.824 13.61 10.7175 14.1239 10.8614 15.0382C10.9803 15.7969 11.8507 16.3727 12.45 16.7234C13.2356 17.1829 14.223 17.4408 15.4115 17.4961V17.4877C15.5443 17.4924 15.6771 17.4961 15.8145 17.4961C17.3653 17.4961 18.5805 17.1773 19.461 16.5405C20.3406 15.9038 20.7804 15.0842 20.7804 14.0836C20.7804 13.3409 20.5933 12.7294 20.2217 12.2521C19.8483 11.7739 19.3974 11.4297 18.8682 11.2168C18.3389 11.0049 17.8088 10.8033 17.2795 10.6138C16.7503 10.4244 16.2985 10.1515 15.926 9.79518C15.5526 9.43883 15.3664 8.97276 15.3664 8.39603C15.3664 7.69739 16.1372 7.02033 16.7826 7.51453L16.7835 7.51359Z" fill="white"/>
<path d="M31.439 6.70068C30.6562 6.32933 29.832 6.14365 28.9671 6.14365C27.7288 6.14365 26.8345 6.5075 26.2831 7.23615V6.12771C26.2831 5.85482 26.2047 5.66914 26.048 5.57068C25.8913 5.47221 25.6266 5.49941 25.2541 5.65039L22.2456 7.76411C21.8722 7.96104 21.6859 8.19642 21.6859 8.46931V8.60529C21.6859 8.81816 21.8759 9.09105 22.2567 9.42396C22.6365 9.7578 22.5259 10.3148 22.5259 10.6937V19.2705C22.5259 19.6803 22.4392 20.0929 22.134 20.5102C21.8279 20.9275 21.6758 21.2342 21.6758 21.4321V21.523C21.6758 21.8419 21.862 22.0003 22.2345 22.0003H27.4246C27.7971 22.0003 27.9833 21.8409 27.9833 21.523V21.4321C27.9833 21.2351 27.8118 20.9275 27.4688 20.5102C27.1258 20.0929 26.9543 19.6803 26.9543 19.2705V17.0405C27.491 17.3593 28.1622 17.5188 28.9671 17.5188C30.4138 17.5188 31.6585 16.9805 32.7022 15.903C33.7459 14.8264 34.2678 13.4085 34.2678 11.6483C34.2678 10.4499 33.9921 9.41833 33.4407 8.55371C32.8894 7.68909 32.2218 7.0711 31.4381 6.69975L31.439 6.70068ZM28.5872 15.8927C28.1548 15.8927 27.774 15.5973 27.4467 15.0055C27.1185 14.4138 26.9543 14.0537 26.9543 13.0831V9.50742C26.9543 8.50682 27.2752 8.00606 27.916 8.00606C28.3779 8.00606 28.921 8.26957 29.2345 9.11074C29.548 9.95192 29.5968 10.3383 29.6946 11.2629C29.7914 12.1885 29.8393 12.663 29.8393 13.5267C29.8393 15.104 29.4217 15.8927 28.5872 15.8927Z" fill="white"/>
<path d="M44.9844 13.4459C44.7751 13.3699 44.5889 13.4234 44.4247 13.6053C43.9471 14.091 43.2842 14.333 42.4341 14.333C41.5241 14.333 40.7791 13.9541 40.1973 13.1955L44.2459 10.5107C44.753 10.1768 45.0065 9.7295 45.0065 9.16777C45.0065 8.39412 44.6294 7.69642 43.8771 7.07468C43.1238 6.45294 42.0616 6.1416 40.6896 6.1416C39.1831 6.1416 37.8821 6.66488 36.7858 7.71142C35.6895 8.75797 35.1418 10.1084 35.1418 11.7607C35.1418 13.413 35.66 14.8628 36.6964 15.9244C37.7327 16.9859 39.0862 17.5167 40.756 17.5167C42.0985 17.5167 43.1901 17.1107 44.0329 16.2995C44.8756 15.4883 45.297 14.7034 45.297 13.9448C45.297 13.6869 45.1928 13.5199 44.9844 13.444V13.4459ZM39.1462 9.84672C39.1462 9.34595 39.254 8.91364 39.4707 8.54979C39.6865 8.18593 39.9741 8.00401 40.3319 8.00401C40.5707 8.00401 40.7791 8.08747 40.9579 8.25439C41.1368 8.42131 41.2677 8.63418 41.3498 8.89113C41.4319 9.14902 41.4872 9.18372 41.5176 9.40409C41.5471 9.62447 41.5628 9.83265 41.5628 10.0296C41.5628 10.5754 41.3682 10.5641 40.981 10.852L39.5491 11.9211C39.2808 11.1474 39.1462 10.8783 39.1462 9.84672Z" fill="white"/>
<path d="M10.1551 13.9037C10.1551 13.6458 10.0509 13.4789 9.84255 13.4029C9.63325 13.3269 9.447 13.3804 9.28289 13.5623C8.80528 14.0481 8.14235 14.29 7.29225 14.29C6.38221 14.29 5.63722 13.9112 5.05543 13.1525L9.10401 10.4677C9.61112 10.1338 9.86468 9.68653 9.86468 9.12481C9.86468 8.35115 9.48757 7.65345 8.73521 7.03171C7.98192 6.40997 6.91975 6.09863 5.54779 6.09863C4.04121 6.09863 2.74024 6.62191 1.64396 7.66845C0.547679 8.71688 0 10.0673 0 11.7196C0 13.3719 0.518175 14.8217 1.55452 15.8833C2.59087 16.9448 3.9444 17.4756 5.61417 17.4756C6.95663 17.4756 8.0483 17.0696 8.89103 16.2584C9.73375 15.4472 10.1551 14.6623 10.1551 13.9037ZM4.00433 9.80469C4.00433 9.30392 4.1122 8.87161 4.32888 8.50775C4.54463 8.1439 4.8323 7.96197 5.19004 7.96197C5.42885 7.96197 5.63722 8.04544 5.81609 8.21236C5.99497 8.37928 6.12589 8.59215 6.20795 8.8491C6.29001 9.10699 6.34533 9.14169 6.37576 9.36206C6.40526 9.58244 6.42094 9.79062 6.42094 9.98755C6.42094 10.5333 6.22639 10.5221 5.83915 10.81L4.40725 11.879C4.13894 11.1054 4.00433 10.8362 4.00433 9.80469Z" fill="white"/>
<path d="M56.269 13.0601C56.0524 13.0001 55.8624 13.0601 55.6983 13.242C55.0566 13.9857 54.2812 14.357 53.3721 14.357C52.3127 14.357 51.4672 13.9172 50.8328 13.0376C50.1985 12.1579 49.8822 11.6 49.8822 10.1436C49.8822 9.53689 49.9901 9.02862 50.2068 8.61975C50.4225 8.20995 50.7019 7.99802 51.0458 7.98301C51.2994 7.96801 51.5225 8.08148 51.717 8.32436C52.2186 8.95079 52.4039 9.80228 52.8733 10.4718C53.3748 11.1874 54.129 11.4396 55.0271 11.4199C55.3396 11.4134 55.6485 11.3186 55.9104 11.1452C56.8969 10.4915 56.6019 9.6016 56.3013 8.72103C56.0846 8.08617 55.7334 7.46068 55.1737 7.07807C54.2415 6.44132 53.0816 6.13092 51.6949 6.14499C50.1146 6.15999 48.7721 6.67952 47.6685 7.70356C46.5648 8.7276 46.0134 10.1042 46.0134 11.8325C46.0134 13.3498 46.55 14.6768 47.6242 15.8143C48.6983 16.9518 50.1072 17.521 51.8517 17.521C53.373 17.521 54.543 17.1347 55.3636 16.361C56.1833 15.5874 56.5936 14.6468 56.5936 13.5402C56.5936 13.2823 56.4848 13.1229 56.269 13.062V13.0601Z" fill="white"/>
<path d="M83.971 14.6363V0.755453C83.971 0.507882 84.0042 0.194668 83.8032 0.0783854C83.6022 -0.0378976 83.3366 -0.0228934 83.0093 0.121523L79.2244 2.52596C78.851 2.70038 78.6915 2.94139 78.6915 3.13082V3.21803C78.6915 3.37839 78.8445 3.65128 79.1497 4.03764C79.4549 4.424 79.407 10.7267 79.407 11.1196V14.6372C79.407 15.0301 79.2539 15.4277 78.9487 15.8282C78.6426 16.2286 78.4905 16.524 78.4905 16.7134V16.8006C78.4905 17.1063 78.6767 17.2592 79.0501 17.2592H84.4412C84.8137 17.2592 84.9999 17.1063 84.9999 16.8006V16.7134C84.9999 16.524 84.8284 16.2295 84.4854 15.8282C84.1415 15.4277 83.971 15.0311 83.971 14.6372V14.6363Z" fill="white"/>
<path d="M63.0126 14.6702V6.89803C63.0126 6.65046 63.0458 6.33725 62.8448 6.22096C62.6438 6.10468 62.3782 6.11968 62.0509 6.2641C61.9624 6.30349 61.8776 6.37569 61.7964 6.42821C61.2239 6.79675 60.6513 7.16623 60.0787 7.53477C59.7606 7.73921 59.4425 7.94458 59.1253 8.14901C58.763 8.38251 58.3767 8.58882 58.0263 8.83921C57.888 8.93767 57.7349 9.08678 57.7349 9.27246V9.35967C57.7349 9.52003 57.888 9.79292 58.1932 10.1793C58.4984 10.5656 58.4504 10.7579 58.4504 11.1517V14.6693C58.4504 15.0622 58.2974 15.4598 57.9922 15.8603C57.6861 16.2607 57.5339 16.5561 57.5339 16.7455V16.8327C57.5339 17.1384 57.7202 17.2913 58.0936 17.2913H63.4846C63.8571 17.2913 64.0434 17.1384 64.0434 16.8327V16.7455C64.0434 16.5561 63.8719 16.2616 63.5289 15.8603C63.185 15.4598 63.0144 15.0632 63.0144 14.6693L63.0126 14.6702Z" fill="white"/>
<path d="M76.8365 6.29262L73.7496 6.32451C73.0489 6.21854 72.6607 6.42297 72.5869 6.93874C71.9452 6.40797 71.1025 6.14258 70.0597 6.14258C68.6278 6.14258 67.3867 6.6771 66.3347 7.74616C65.2836 8.81521 64.7581 10.1768 64.7581 11.8301C64.7581 13.6353 65.2799 15.0345 66.3236 16.0276C67.3674 17.0207 68.613 17.5177 70.0597 17.5177C71.0886 17.5177 71.9314 17.2448 72.5869 16.699C72.6164 17.0938 72.8331 17.2907 73.2351 17.2907H76.7692C77.1417 17.2907 77.3279 17.1313 77.3279 16.8134V16.7225C77.3279 16.5255 77.1749 16.2179 76.8697 15.8006C76.5636 15.3833 76.4115 14.9707 76.4115 14.5609V9.76048C76.4115 9.36662 76.4972 9.02058 76.6687 8.72519C76.8402 8.42979 77.0117 8.18691 77.1832 7.99748C77.3547 7.80805 77.4404 7.65238 77.4404 7.53141V6.99876C77.4404 6.57395 77.2394 6.33857 76.8365 6.29356V6.29262ZM72.1167 14.3893C72.1167 14.8601 72.0199 15.2314 71.8263 15.5043C71.6317 15.7772 71.3791 15.9066 71.0656 15.8907C70.6534 15.871 70.2856 15.6121 70.0541 15.2764C69.157 13.972 69.0242 11.9042 69.0971 10.37C69.1718 8.79271 69.6189 8.00404 70.4395 8.00404C71.4593 8.00404 72.1176 9.22127 72.1176 10.1243V14.3893H72.1167Z" fill="white"/>
</g>
<defs>
<linearGradient id="paint0_linear_226_644" x1="57.5377" y1="3.2115" x2="63.3483" y2="3.2115" gradientUnits="userSpaceOnUse">
<stop stop-color="#FFFF00"/>
<stop offset="0.16" stop-color="#FBCE1A" stop-opacity="0.94"/>
<stop offset="0.38" stop-color="#F6903B" stop-opacity="0.85"/>
<stop offset="0.59" stop-color="#F25F55" stop-opacity="0.79"/>
<stop offset="0.77" stop-color="#EF3B69" stop-opacity="0.74"/>
<stop offset="0.91" stop-color="#ED2574" stop-opacity="0.71"/>
<stop offset="1" stop-color="#ED1E79" stop-opacity="0.7"/>
</linearGradient>
<clipPath id="clip0_226_644">
<rect width="85" height="22" fill="white"/>
</clipPath>
</defs>
</svg>
